<svg xmlns="http://www.w3.org/2000/svg" xmlns:xlink="http://www.w3.org/1999/xlink" width="414" zoomAndPan="magnify" viewBox="0 0 310.5 116.999995" height="156" preserveAspectRatio="xMidYMid meet" version="1.2"><defs><clipPath id="dbf9610257"><path d="M 114.164062 48.070312 L 193.527344 48.070312 L 193.527344 81.019531 L 114.164062 81.019531 Z M 114.164062 48.070312 "/></clipPath><clipPath id="24d35ff825"><path d="M 130.886719 48.070312 L 176.792969 48.070312 C 186.03125 48.070312 193.515625 55.445312 193.515625 64.542969 C 193.515625 73.640625 186.03125 81.019531 176.792969 81.019531 L 130.886719 81.019531 C 121.652344 81.019531 114.164062 73.640625 114.164062 64.542969 C 114.164062 55.445312 121.652344 48.070312 130.886719 48.070312 Z M 130.886719 48.070312 "/></clipPath></defs><g id="1bdfb6a9d6"><g clip-rule="nonzero" clip-path="url(#dbf9610257)"><g clip-rule="nonzero" clip-path="url(#24d35ff825)"><path style="fill:none;stroke-width:14;stroke-linecap:butt;stroke-linejoin:miter;stroke:#5e17eb;stroke-opacity:1;stroke-miterlimit:4;" d="M 22.242299 -0.000581507 L 83.305198 -0.000581507 C 95.593639 -0.000581507 105.549094 9.957012 105.549094 22.240505 C 105.549094 34.523998 95.593639 44.486866 83.305198 44.486866 L 22.242299 44.486866 C 9.959055 44.486866 -0.00159691 34.523998 -0.00159691 22.240505 C -0.00159691 9.957012 9.959055 -0.000581507 22.242299 -0.000581507 Z M 22.242299 -0.000581507 " transform="matrix(0.751786,0,0,0.740641,114.165263,48.070743)"/></g></g><g style="fill:#000000;fill-opacity:1;"><g transform="translate(18.970927, 81.401042)"><path style="stroke:none" d="M 40.5625 -4.1875 L 40.5625 0 L 2.953125 0 L 2.953125 -3.34375 L 33.359375 -41.671875 L 3.40625 -41.671875 L 3.40625 -45.875 L 39.78125 -45.875 L 39.78125 -42.53125 L 9.4375 -4.1875 Z M 40.5625 -4.1875 "/></g></g><g style="fill:#000000;fill-opacity:1;"><g transform="translate(61.624157, 81.401042)"><path style="stroke:none" d="M 6.484375 -34.46875 L 11.140625 -34.46875 L 11.140625 0 L 6.484375 0 Z M 8.84375 -42 C 7.882812 -42 7.078125 -42.328125 6.421875 -42.984375 C 5.765625 -43.640625 5.4375 -44.425781 5.4375 -45.34375 C 5.4375 -46.21875 5.765625 -46.984375 6.421875 -47.640625 C 7.078125 -48.296875 7.882812 -48.625 8.84375 -48.625 C 9.800781 -48.625 10.609375 -48.304688 11.265625 -47.671875 C 11.921875 -47.035156 12.25 -46.28125 12.25 -45.40625 C 12.25 -44.445312 11.921875 -43.640625 11.265625 -42.984375 C 10.609375 -42.328125 9.800781 -42 8.84375 -42 Z M 8.84375 -42 "/></g></g><g style="fill:#000000;fill-opacity:1;"><g transform="translate(79.248916, 81.401042)"><path style="stroke:none" d="M 6.484375 -48.625 L 11.140625 -48.625 L 11.140625 0 L 6.484375 0 Z M 6.484375 -48.625 "/></g></g><g style="fill:#000000;fill-opacity:1;"><g transform="translate(96.873674, 81.401042)"><path style="stroke:none" d="M 6.484375 -34.46875 L 11.140625 -34.46875 L 11.140625 0 L 6.484375 0 Z M 8.84375 -42 C 7.882812 -42 7.078125 -42.328125 6.421875 -42.984375 C 5.765625 -43.640625 5.4375 -44.425781 5.4375 -45.34375 C 5.4375 -46.21875 5.765625 -46.984375 6.421875 -47.640625 C 7.078125 -48.296875 7.882812 -48.625 8.84375 -48.625 C 9.800781 -48.625 10.609375 -48.304688 11.265625 -47.671875 C 11.921875 -47.035156 12.25 -46.28125 12.25 -45.40625 C 12.25 -44.445312 11.921875 -43.640625 11.265625 -42.984375 C 10.609375 -42.328125 9.800781 -42 8.84375 -42 Z M 8.84375 -42 "/></g></g><g style="fill:#000000;fill-opacity:1;"><g transform="translate(193.86837, 80.499046)"><path style="stroke:none" d="M 24.046875 -34.734375 C 28.367188 -34.734375 31.804688 -33.476562 34.359375 -30.96875 C 36.921875 -28.457031 38.203125 -24.796875 38.203125 -19.984375 L 38.203125 0 L 33.546875 0 L 33.546875 -19.53125 C 33.546875 -23.113281 32.648438 -25.84375 30.859375 -27.71875 C 29.066406 -29.59375 26.515625 -30.53125 23.203125 -30.53125 C 19.484375 -30.53125 16.539062 -29.425781 14.375 -27.21875 C 12.21875 -25.019531 11.140625 -21.976562 11.140625 -18.09375 L 11.140625 0 L 6.484375 0 L 6.484375 -34.46875 L 10.9375 -34.46875 L 10.9375 -28.109375 C 12.207031 -30.210938 13.96875 -31.84375 16.21875 -33 C 18.46875 -34.15625 21.078125 -34.734375 24.046875 -34.734375 Z M 24.046875 -34.734375 "/></g></g><g style="fill:#000000;fill-opacity:1;"><g transform="translate(238.231931, 80.499046)"><path style="stroke:none" d="M 6.484375 -34.46875 L 11.140625 -34.46875 L 11.140625 0 L 6.484375 0 Z M 8.84375 -42 C 7.882812 -42 7.078125 -42.328125 6.421875 -42.984375 C 5.765625 -43.640625 5.4375 -44.425781 5.4375 -45.34375 C 5.4375 -46.21875 5.765625 -46.984375 6.421875 -47.640625 C 7.078125 -48.296875 7.882812 -48.625 8.84375 -48.625 C 9.800781 -48.625 10.609375 -48.304688 11.265625 -47.671875 C 11.921875 -47.035156 12.25 -46.28125 12.25 -45.40625 C 12.25 -44.445312 11.921875 -43.640625 11.265625 -42.984375 C 10.609375 -42.328125 9.800781 -42 8.84375 -42 Z M 8.84375 -42 "/></g></g><g style="fill:#000000;fill-opacity:1;"><g transform="translate(255.859399, 80.499046)"><path style="stroke:none" d="M 28.4375 0 L 17.5 -14.421875 L 6.484375 0 L 1.25 0 L 14.875 -17.6875 L 1.90625 -34.46875 L 7.140625 -34.46875 L 17.5 -20.96875 L 27.84375 -34.46875 L 32.96875 -34.46875 L 19.984375 -17.6875 L 33.75 0 Z M 28.4375 0 "/></g></g></g></svg>